<svg id="_1" data-name="1" xmlns="http://www.w3.org/2000/svg" xmlns:xlink="http://www.w3.org/1999/xlink" viewBox="0 0 700 700"><defs><style>.cls-1{fill:#fff;}.cls-2{fill:url(#linear-gradient);}.cls-3{fill:#97d700;}</style><linearGradient id="linear-gradient" x1="100" y1="359.85" x2="600" y2="359.85" gradientUnits="userSpaceOnUse"><stop offset="0" stop-color="#089ee4"/><stop offset="1" stop-color="#0058ba"/></linearGradient></defs><title>Artboard 3</title><rect class="cls-1" width="700" height="700" rx="350"/><path class="cls-2" d="M600,348.81C600,484,490.4,593.59,355.29,593.59a244,244,0,0,1-151.7-52.67l-41.1,38.66a37.08,37.08,0,0,1-50.85-54L153,486.68a243.76,243.76,0,0,1-42.47-137.87c0-99,58.8-184.16,143.31-222.69a118,118,0,0,0-17.39,61.61,107.84,107.84,0,0,0,1.25,16.83,185.62,185.62,0,0,0-68.56,144.25c0,102.78,83.33,186.1,186.17,186.1s186-83.32,186-186.1a185.57,185.57,0,0,0-68.43-144.19,115.76,115.76,0,0,0,1.25-16.89,118.15,118.15,0,0,0-17.39-61.61C541.26,164.71,600,249.85,600,348.81Z"/><circle class="cls-3" cx="350" cy="187.73" r="81.32"/><path class="cls-3" d="M493.88,344.12a143.88,143.88,0,0,1-287.76,0l62.56-62.55,78.19,65.68,75.07-68.81Z"/></svg>